<svg width="979" height="156" viewBox="0 0 979 156" fill="none" xmlns="http://www.w3.org/2000/svg">
<path d="M194.351 63.1183H228.285V93.9677H194.351V63.1183Z" fill="#333333"/>
<path fill-rule="evenodd" clip-rule="evenodd" d="M114.028 53.8636C105.714 40.7371 91.6351 32.269 75.5808 32.269C50.8763 32.269 30.8493 52.9866 30.8493 78.543C30.8493 104.099 50.8763 124.817 75.5808 124.817C91.3553 124.817 105.852 116.013 114.27 103.222H148.077C143.52 118.46 134.535 131.533 121.119 141.238C107.704 150.857 92.9382 155.666 76.8227 155.666C67.2884 155.666 57.7119 153.751 48.0933 149.92C38.559 146.005 30.3325 140.684 23.4138 133.959C15.7358 126.468 9.91397 117.913 5.94838 108.294C1.98279 98.6751 0 88.4175 0 77.5215C0 56.4956 7.46712 38.5768 22.4014 23.765C37.42 8.86816 55.476 1.41972 76.5696 1.41972C92.4319 1.41972 107.24 6.31441 120.993 16.1038C134.746 25.8932 143.774 38.2857 148.077 53.8636H114.028Z" fill="#333333"/>
<path d="M257.351 1.41972V155.666H305.553C354.603 155.666 390.62 122.426 390.62 77.309C390.62 31.7292 356.608 1.41972 307.558 1.41972H257.351ZM307.327 29.6468C338.099 29.6468 358.691 47.2309 358.691 77.309C358.691 106.693 338.099 125.897 307.327 125.897H288.586V29.6468H307.327Z" fill="#333333"/>
<path d="M259.134 1.41976L163.501 1.41972V155.666H195.539L195.777 96.1637V29.6808L259.134 29.6807V1.41976Z" fill="#333333"/>
<path d="M505.857 32.6753C504.812 34.3473 503.697 35.6013 502.513 36.4373C501.398 37.2733 499.935 37.6913 498.124 37.6913C496.522 37.6913 494.78 37.2036 492.899 36.2283C491.088 35.1833 488.998 34.0338 486.629 32.7798C484.33 31.5258 481.683 30.4111 478.687 29.4358C475.691 28.3908 472.278 27.8683 468.446 27.8683C461.828 27.8683 456.881 29.2965 453.607 32.1528C450.402 34.9395 448.8 38.7363 448.8 43.5433C448.8 46.6086 449.775 49.1515 451.726 51.1718C453.677 53.1921 456.219 54.9338 459.354 56.3968C462.559 57.8598 466.182 59.2183 470.223 60.4723C474.333 61.6566 478.513 63.0151 482.763 64.5478C487.012 66.0108 491.157 67.7525 495.198 69.7728C499.308 71.7931 502.931 74.3708 506.066 77.5058C509.271 80.6408 511.848 84.4725 513.799 89.0008C515.75 93.4595 516.725 98.8586 516.725 105.198C516.725 112.235 515.506 118.818 513.068 124.949C510.629 131.079 507.076 136.444 502.409 141.042C497.811 145.57 492.098 149.158 485.271 151.805C478.513 154.383 470.815 155.672 462.176 155.672C457.439 155.672 452.597 155.184 447.651 154.209C442.774 153.233 438.037 151.875 433.439 150.133C428.841 148.322 424.521 146.197 420.48 143.759C416.44 141.32 412.922 138.603 409.926 135.608L420.376 119.097C421.212 117.912 422.292 116.937 423.616 116.171C425.009 115.335 426.507 114.917 428.109 114.917C430.199 114.917 432.289 115.579 434.379 116.902C436.539 118.226 438.942 119.689 441.59 121.291C444.307 122.894 447.407 124.357 450.89 125.68C454.373 127.004 458.484 127.666 463.221 127.666C469.63 127.666 474.612 126.272 478.165 123.486C481.718 120.629 483.494 116.136 483.494 110.005C483.494 106.452 482.519 103.561 480.568 101.332C478.617 99.1025 476.04 97.2563 472.835 95.7933C469.7 94.3303 466.112 93.0415 462.072 91.9268C458.031 90.8121 453.886 89.593 449.636 88.2693C445.386 86.876 441.241 85.204 437.201 83.2533C433.16 81.233 429.537 78.6205 426.332 75.4158C423.197 72.1415 420.655 68.1008 418.704 63.2938C416.753 58.4171 415.778 52.4258 415.778 45.3198C415.778 39.6071 416.928 34.0338 419.227 28.5998C421.526 23.1658 424.904 18.3239 429.363 14.0743C433.822 9.82462 439.291 6.44578 445.77 3.93778C452.249 1.36012 459.668 0.0712891 468.028 0.0712891C472.696 0.0712891 477.224 0.454457 481.613 1.22079C486.072 1.91746 490.287 2.99729 494.258 4.46028C498.229 5.85362 501.921 7.56046 505.335 9.58078C508.818 11.5315 511.918 13.7608 514.635 16.2688L505.857 32.6753Z" fill="#FCB941"/>
<path d="M668.294 1.74329V154H632.764V89.6278H570.9V154H535.37V1.74329H570.9V65.3838H632.764V1.74329H668.294Z" fill="#FCB941"/>
<path d="M845.18 77.8193C845.18 88.8266 843.264 99.0676 839.432 108.542C835.67 118.017 830.341 126.272 823.444 133.309C816.547 140.275 808.222 145.744 798.468 149.715C788.785 153.686 778.021 155.672 766.178 155.672C754.335 155.672 743.536 153.686 733.783 149.715C724.03 145.744 715.67 140.275 708.703 133.309C701.806 126.272 696.442 118.017 692.61 108.542C688.848 99.0676 686.967 88.8266 686.967 77.8193C686.967 66.812 688.848 56.571 692.61 47.0963C696.442 37.6216 701.806 29.401 708.703 22.4343C715.67 15.4676 724.03 9.99879 733.783 6.02779C743.536 2.05679 754.335 0.0712891 766.178 0.0712891C778.021 0.0712891 788.785 2.09162 798.468 6.13229C808.222 10.1033 816.547 15.5721 823.444 22.5388C830.341 29.5055 835.67 37.7261 839.432 47.2008C843.264 56.6755 845.18 66.8816 845.18 77.8193ZM809.023 77.8193C809.023 70.2953 808.048 63.5376 806.097 57.5463C804.146 51.4853 801.325 46.3648 797.632 42.1848C794.01 38.0048 789.551 34.8001 784.256 32.5708C778.962 30.3415 772.936 29.2268 766.178 29.2268C759.351 29.2268 753.255 30.3415 747.89 32.5708C742.596 34.8001 738.102 38.0048 734.41 42.1848C730.787 46.3648 728.001 51.4853 726.05 57.5463C724.099 63.5376 723.124 70.2953 723.124 77.8193C723.124 85.413 724.099 92.2403 726.05 98.3013C728.001 104.293 730.787 109.378 734.41 113.558C738.102 117.738 742.596 120.943 747.89 123.172C753.255 125.332 759.351 126.412 766.178 126.412C772.936 126.412 778.962 125.332 784.256 123.172C789.551 120.943 794.01 117.738 797.632 113.558C801.325 109.378 804.146 104.293 806.097 98.3013C808.048 92.2403 809.023 85.413 809.023 77.8193Z" fill="#FCB941"/>
<path d="M917.589 76.4608C926.785 76.4608 933.403 74.2663 937.444 69.8773C941.484 65.4883 943.505 59.3576 943.505 51.4853C943.505 48.002 942.982 44.8321 941.937 41.9758C940.892 39.1195 939.29 36.6811 937.13 34.6608C935.04 32.5708 932.358 30.9685 929.084 29.8538C925.879 28.7391 922.047 28.1818 917.589 28.1818H899.197V76.4608H917.589ZM917.589 1.74329C928.317 1.74329 937.513 3.03212 945.177 5.60979C952.91 8.11779 959.249 11.6011 964.196 16.0598C969.212 20.5185 972.904 25.7783 975.273 31.8393C977.641 37.9003 978.826 44.449 978.826 51.4853C978.826 59.079 977.606 66.0456 975.168 72.3853C972.73 78.725 969.003 84.159 963.987 88.6873C958.971 93.2156 952.596 96.7686 944.863 99.3463C937.2 101.854 928.108 103.108 917.589 103.108H899.197V154H863.876V1.74329H917.589Z" fill="#FCB941"/>
</svg>
